<svg xmlns="http://www.w3.org/2000/svg" width="1200" height="900" viewBox="0 0 1200 900" fill="none">
  <defs>
    <linearGradient id="bg" x1="0" y1="0" x2="1" y2="1">
      <stop offset="0" stop-color="#0B1020"/>
      <stop offset="0.55" stop-color="#152A5A"/>
      <stop offset="1" stop-color="#0B1020"/>
    </linearGradient>
    <linearGradient id="accent" x1="0" y1="0" x2="1" y2="0">
      <stop offset="0" stop-color="#F6C945"/>
      <stop offset="1" stop-color="#FFE79A"/>
    </linearGradient>
    <filter id="soft" x="-20%" y="-20%" width="140%" height="140%">
      <feGaussianBlur stdDeviation="16" result="b"/>
      <feColorMatrix in="b" type="matrix" values="1 0 0 0 0  0 1 0 0 0  0 0 1 0 0  0 0 0 .22 0" result="bb"/>
      <feBlend in="SourceGraphic" in2="bb" mode="normal"/>
    </filter>
  </defs>

  <rect x="0" y="0" width="1200" height="900" rx="48" fill="url(#bg)"/>

  <!-- subtle stripes -->
  <g opacity="0.22">
    <rect x="0" y="0" width="120" height="900" fill="#3F7FDA"/>
    <rect x="120" y="0" width="120" height="900" fill="#2F66B8"/>
    <rect x="240" y="0" width="120" height="900" fill="#3F7FDA"/>
    <rect x="360" y="0" width="120" height="900" fill="#2F66B8"/>
    <rect x="480" y="0" width="120" height="900" fill="#3F7FDA"/>
    <rect x="600" y="0" width="120" height="900" fill="#2F66B8"/>
    <rect x="720" y="0" width="120" height="900" fill="#3F7FDA"/>
    <rect x="840" y="0" width="120" height="900" fill="#2F66B8"/>
    <rect x="960" y="0" width="120" height="900" fill="#3F7FDA"/>
    <rect x="1080" y="0" width="120" height="900" fill="#2F66B8"/>
  </g>

  <!-- photo frame -->
  <g filter="url(#soft)">
    <rect x="165" y="110" width="870" height="680" rx="40" fill="#FFFFFF" opacity="0.08" stroke="#FFFFFF" stroke-opacity="0.22"/>
    <rect x="205" y="150" width="790" height="600" rx="32" fill="#0B1020" opacity="0.55"/>
  </g>

  <!-- abstract person -->
  <g>
    <circle cx="600" cy="370" r="110" fill="#F8FAFC" opacity="0.85"/>
    <path d="M402 735c0-110 88-198 198-198s198 88 198 198" fill="#F8FAFC" opacity="0.8"/>

    <path d="M523 350c12-62 56-98 117-98 76 0 127 56 127 126 0 44-19 82-53 105-15 11-39 25-85 25-54 0-88-18-108-40-18-20-26-45-24-78z" fill="#0B1020" opacity="0.22"/>
  </g>

  <!-- accent chips -->
  <g opacity="0.95">
    <rect x="240" y="195" width="210" height="56" rx="28" fill="url(#accent)"/>
    <rect x="465" y="195" width="260" height="56" rx="28" fill="#FFFFFF" opacity="0.12"/>
    <rect x="735" y="195" width="225" height="56" rx="28" fill="#FFFFFF" opacity="0.12"/>
  </g>

  <!-- corner sparkles -->
  <g opacity="0.45" fill="#FFFFFF">
    <path d="M1088 120l16 42 42 16-42 16-16 42-16-42-42-16 42-16 16-42z"/>
    <path d="M152 720l10 26 26 10-26 10-10 26-10-26-26-10 26-10 10-26z"/>
  </g>
</svg>
